<svg xmlns="http://www.w3.org/2000/svg" width="186" height="53" fill="#fff" xmlns:v="https://vecta.io/nano"><path d="M48.713 8.907h4.212c3.451.042 5.911 1.773 6.69 4.902.295 1.181.266 2.458.261 3.69 0 .7-.432 1.32-1.232 1.258s-.827-.77-.856-1.417c-.051-1.162-.013-2.35-.248-3.481-.324-1.558-1.685-2.543-3.289-2.543-16.142-.009-32.286-.009-48.43 0-.912.006-1.785.369-2.429 1.01a3.42 3.42 0 0 0-1.009 2.415v32.01c0 1.98 1.527 3.459 3.6 3.503 1.255.026 2.511 0 3.768 0h43.89c2.693 0 4.16-1.419 4.212-4.072.02-.915 0-1.844.111-2.735.095-.462.346-1.23 1.051-1.23s1.084.759 1.119 1.179c.222 2.658.16 5.294-2.021 7.307-1.208 1.142-2.818 1.77-4.486 1.749-15.443 0-30.886-.066-46.326.046-3.872.033-7.335-2.429-7.275-7.192l.018-18.149c0-3.485.117-6.972-.031-10.451-.177-4.132 1.762-6.871 6.508-7.843l26.508-5.83L44.034.582c2.234-.491 4.613 1.351 4.67 3.626.04 1.5.009 3.003.009 4.699zm-30.118-.484l.08.389H46.71V4.485c-.015-1.364-.82-1.969-2.17-1.681L21.013 7.809c-.811.174-1.614.394-2.418.614zm5.344 31.422l-6.765-2.029c-.341-.146-.704-.234-1.075-.262-4.196-.156-7.789-3.228-7.789-8.875s3.462-9.24 8.235-9.24 7.92 3.694 7.92 8.875c0 4.502-2.099 7.39-5.036 8.407v.103c1.758.44 3.673.858 5.167 1.12l-.656 1.901zM22.05 28.42c0-3.52-1.835-7.133-5.584-7.133-3.855 0-5.743 3.54-5.716 7.342-.018 3.72 2.053 7.076 5.619 7.076 3.646 0 5.69-3.276 5.69-7.285h-.009zm16.66 5.415l.106 3.434H36.77l-.131-2.055h-.053a4.76 4.76 0 0 1-1.779 1.734 4.8 4.8 0 0 1-2.417.607c-1.995 0-4.378-1.1-4.378-5.518v-7.366h2.308v6.977c0 2.394.734 4.009 2.83 4.009a3.35 3.35 0 0 0 1.839-.585 3.32 3.32 0 0 0 1.204-1.498 3.32 3.32 0 0 0 .208-1.17v-7.731h2.307v9.164zm11.513 3.434l-.184-1.589h-.078a4.72 4.72 0 0 1-1.713 1.403c-.675.326-1.418.488-2.169.472-2.571 0-3.881-1.795-3.881-3.617 0-3.045 2.726-4.71 7.632-4.686v-.26c0-1.041-.29-2.915-2.881-2.915a6.36 6.36 0 0 0-3.303.937l-.525-1.509c1.048-.678 2.569-1.12 4.169-1.12 3.881 0 4.825 2.64 4.825 5.155v4.711a17.6 17.6 0 0 0 .208 3.019h-2.101zm-.35-6.429c-2.516-.053-5.375.392-5.375 2.838 0 1.483.997 2.185 2.177 2.185a3.18 3.18 0 0 0 1.881-.556 3.14 3.14 0 0 0 1.187-1.552 2.34 2.34 0 0 0 .131-.728V30.84zm6.616-2.759l-.104-3.41h2.046l.131 2.084h.053c.627-1.197 2.097-2.37 4.194-2.37 1.758 0 4.484 1.041 4.484 5.362v7.522h-2.307v-7.26c0-2.031-.76-3.723-2.937-3.723-.702.01-1.382.242-1.94.664a3.26 3.26 0 0 0-1.163 1.679c-.111.345-.164.705-.157 1.067v7.573H56.49v-9.188zm17.883-7.027v3.617h3.305v1.745h-3.305v6.794c0 1.56.443 2.447 1.731 2.447a5.24 5.24 0 0 0 1.33-.156l.104 1.718a5.74 5.74 0 0 1-2.046.31c-1.075 0-1.939-.337-2.491-.962-.654-.678-.887-1.797-.887-3.28v-6.871h-1.966v-1.745h1.966v-3.019l2.259-.598zm17.886 9.81c0 4.66-3.252 6.688-6.319 6.688-3.436 0-6.085-2.497-6.085-6.479 0-4.218 2.78-6.69 6.293-6.69 3.646.002 6.111 2.631 6.111 6.482zm-10.07.13c0 2.759 1.598 4.84 3.854 4.84 2.203 0 3.855-2.055 3.855-4.893 0-2.134-1.075-4.84-3.801-4.84s-3.908 2.502-3.908 4.895v-.002zm13.636-2.913l-.106-3.41h2.019l.104 2.031h.08c.707-1.197 1.888-2.317 3.99-2.317.79-.01 1.564.228 2.21.681a3.73 3.73 0 0 1 1.387 1.838h.051a5.24 5.24 0 0 1 1.416-1.641 4.36 4.36 0 0 1 2.807-.88c1.677 0 4.169 1.1 4.169 5.467v7.417h-2.263v-7.128c0-2.42-.887-3.879-2.753-3.879-1.312 0-2.334.964-2.729 2.081a3.78 3.78 0 0 0-.184 1.146v7.782h-2.254V29.72c0-2.004-.887-3.461-2.649-3.461-1.44 0-2.491 1.146-2.857 2.29-.129.359-.191.739-.184 1.12v7.599h-2.254V28.08zm29.551 9.188l-.184-1.589h-.078a4.71 4.71 0 0 1-1.712 1.403c-.675.326-1.418.488-2.169.472-2.569 0-3.881-1.795-3.881-3.617 0-3.045 2.726-4.71 7.632-4.686v-.26c0-1.041-.288-2.915-2.882-2.915-1.167.004-2.31.329-3.302.937l-.526-1.509c1.049-.678 2.571-1.12 4.17-1.12 3.881 0 4.825 2.64 4.825 5.155v4.711a17.54 17.54 0 0 0 .222 3.019h-2.115zm-.341-6.429c-2.516-.053-5.375.392-5.375 2.838 0 1.483.997 2.185 2.176 2.185a3.17 3.17 0 0 0 1.881-.556c.552-.379.968-.923 1.187-1.552a2.35 2.35 0 0 0 .131-.728V30.84zm6.607-2.759l-.104-3.41h2.046l.131 2.084h.053c.629-1.197 2.097-2.37 4.196-2.37 1.755 0 4.482 1.041 4.482 5.362v7.522h-2.308v-7.26c0-2.031-.76-3.723-2.937-3.723a3.3 3.3 0 0 0-1.94.664c-.559.422-.966 1.01-1.163 1.679-.11.345-.163.705-.155 1.067v7.573h-2.301v-9.188zm17.779-6.95c.027.781-.549 1.406-1.467 1.406a1.37 1.37 0 0 1-.998-.407c-.13-.131-.232-.288-.299-.459a1.36 1.36 0 0 1-.093-.539 1.38 1.38 0 0 1 .1-.553c.071-.176.177-.336.312-.469a1.42 1.42 0 0 1 .473-.309 1.4 1.4 0 0 1 .558-.098c.19-.007.379.026.555.096a1.37 1.37 0 0 1 .47.31 1.36 1.36 0 0 1 .303.471c.067.176.096.365.086.553zm-2.569 16.138V24.671h2.308v12.598h-2.308zm13.818 0l-.182-1.589h-.079c-.451.596-1.038 1.077-1.713 1.403s-1.418.488-2.169.472c-2.569 0-3.881-1.795-3.881-3.617 0-3.045 2.729-4.71 7.632-4.686v-.26c0-1.041-.288-2.915-2.882-2.915a6.37 6.37 0 0 0-3.305.937l-.525-1.509c1.051-.678 2.571-1.12 4.169-1.12 3.882 0 4.826 2.64 4.826 5.155v4.711a17.54 17.54 0 0 0 .222 3.019h-2.113zm-.339-6.429c-2.518-.053-5.377.392-5.377 2.838 0 1.483.997 2.185 2.176 2.185a3.17 3.17 0 0 0 1.882-.555 3.13 3.13 0 0 0 1.186-1.552 2.32 2.32 0 0 0 .133-.728V30.84zm9.545.904l-1.836 5.518h-2.36l6.004-17.542h2.76l6.031 17.542h-2.438l-1.895-5.518h-6.266zm5.794-1.76l-1.729-5.06c-.395-1.146-.665-2.187-.92-3.201h-.051l-.887 3.175-1.735 5.087h5.322zM186 19.727v17.542h-2.281V19.727H186z"/></svg>